<svg class="img-fluid" id="outputsvg" xmlns="http://www.w3.org/2000/svg"
    style="transform: matrix(0.856831, 0, 0, 0.856831, 0, 0); transform-origin: 50% 50%; cursor: move; max-height: none; transition: transform 200ms ease-in-out 0s;"
    width="1416" height="1168" viewBox="0 0 14160 11680">
    <g id="l4P2v5HKNA23FrLqye2nbur" fill="rgb(24,82,97)" style="transform: none;">
        <g>
            <path id="pMiChcFvN"
                d="M5670 10209 c-108 -18 -226 -72 -310 -144 -70 -58 -100 -93 -161 -182 l-49 -71 -362 -5 c-404 -4 -410 -5 -554 -76 -143 -71 -269 -209 -346 -378 -37 -83 -78 -239 -78 -301 0 -45 -2 -48 -88 -128 -143 -133 -243 -299 -294 -484 -20 -75 -23 -106 -22 -265 1 -123 8 -237 24 -360 16 -126 24 -252 27 -420 5 -266 10 -289 68 -325 39 -24 113 -27 155 -5 58 30 72 65 82 203 10 148 4 292 -22 522 -47 414 -46 495 4 639 73 208 265 378 482 426 105 24 263 17 359 -16 67 -23 70 -25 67 -54 -8 -79 -3 -341 7 -430 19 -158 25 -707 12 -1009 -13 -279 -35 -593 -43 -601 -3 -3 -308 -32 -679 -65 -371 -33 -746 -67 -834 -75 -88 -8 -340 -30 -560 -50 -220 -19 -449 -40 -509 -45 -125 -11 -160 -27 -193 -86 -29 -51 -29 -97 2 -149 17 -31 36 -47 66 -59 44 -18 133 -15 394 14 50 5 146 14 215 20 69 5 251 21 405 35 154 14 361 32 460 40 99 8 250 22 335 30 85 8 232 21 325 30 94 8 245 22 336 30 227 20 208 23 202 -27 -32 -278 -117 -767 -136 -784 -7 -7 -144 -23 -317 -38 -290 -26 -825 -74 -1687 -151 -267 -24 -405 -40 -433 -51 -46 -19 -90 -82 -90 -130 1 -54 35 -111 81 -135 42 -21 46 -21 198 -9 86 6 186 15 224 19 69 7 84 1 45 -20 -55 -28 -250 -184 -329 -261 -267 -263 -435 -539 -534 -878 -51 -177 -69 -308 -68 -505 1 -182 12 -292 44 -420 115 -461 367 -844 747 -1134 243 -185 570 -334 865 -396 203 -42 326 -55 541 -55 369 0 690 33 1121 115 663 126 1273 168 1795 124 198 -16 467 -58 815 -125 350 -67 891 -129 1640 -185 521 -39 794 -27 1095 51 266 68 545 186 720 303 36 24 72 46 80 49 8 3 57 38 109 77 246 185 439 387 605 636 187 278 317 585 380 895 48 238 51 281 51 730 0 483 -5 545 -81 928 -51 260 -85 410 -160 696 -30 115 -53 210 -51 212 2 2 109 13 238 25 275 24 305 33 338 101 11 24 21 57 21 72 0 40 -37 104 -73 126 -41 25 -82 25 -357 0 -118 -11 -225 -20 -237 -20 -19 0 -25 12 -47 83 -47 155 -80 369 -92 595 l-7 131 24 5 c13 3 143 15 289 27 146 12 280 27 299 33 45 14 91 73 98 123 7 51 -25 116 -70 143 -41 26 -97 26 -387 0 -123 -11 -233 -20 -244 -20 -19 0 -19 8 -13 248 10 386 38 622 108 901 50 197 55 332 19 476 -32 127 -102 274 -163 342 -17 20 -19 31 -13 92 13 147 80 295 173 384 22 21 73 55 114 76 94 48 119 82 119 160 0 68 -22 108 -76 142 l-39 24 -450 0 c-438 0 -452 -1 -520 -22 -102 -33 -207 -95 -288 -172 l-72 -67 -130 17 c-246 33 -357 21 -510 -55 -98 -49 -192 -126 -263 -219 -56 -72 -125 -207 -152 -296 -20 -65 -27 -75 -79 -115 -71 -55 -136 -124 -187 -201 -79 -117 -413 -764 -493 -955 -82 -193 -197 -549 -262 -808 -32 -129 -61 -237 -63 -239 -5 -5 -136 -17 -716 -68 -531 -46 -541 -48 -580 -125 -25 -49 -25 -83 0 -138 15 -34 29 -47 67 -64 46 -20 48 -20 227 -4 227 21 662 60 956 86 124 11 329 29 455 40 582 53 750 67 753 65 1 -1 -2 -89 -8 -196 -5 -107 -10 -303 -10 -436 0 -225 -1 -243 -17 -243 -10 0 -81 7 -158 15 -200 22 -709 30 -935 16 -575 -37 -1116 -137 -1658 -308 -79 -24 -146 -42 -150 -39 -3 4 2 79 12 169 36 348 45 485 56 871 7 287 -2 1024 -14 1116 -3 19 -8 85 -11 145 -17 295 -80 750 -125 905 -23 77 -87 212 -132 278 -17 26 -61 77 -96 114 l-65 67 7 70 c22 221 124 387 289 469 37 19 76 45 87 59 67 86 36 208 -64 254 -38 17 -72 18 -451 18 -225 -1 -435 -5 -465 -10z m452 -294 c3 -3 -18 -52 -47 -108 -29 -56 -62 -141 -75 -189 -13 -49 -28 -88 -34 -88 -6 0 -31 7 -55 16 -119 41 -361 54 -483 25 -49 -11 -49 0 -3 93 64 129 186 229 300 246 58 9 389 13 397 5z m5322 -3 c2 -4 -9 -30 -26 -57 -30 -48 -98 -206 -98 -229 -1 -36 -17 -37 -106 -7 -144 47 -338 62 -451 34 -35 -8 -28 15 27 88 74 99 158 155 255 169 69 10 393 12 399 2z m-1140 -233 c50 -6 94 -14 98 -18 4 -3 1 -33 -7 -66 -7 -33 -16 -77 -19 -97 -5 -27 -17 -45 -45 -67 l-38 -30 -75 24 c-91 29 -233 49 -299 43 -27 -3 -49 -2 -49 3 0 17 82 108 126 141 58 42 139 73 198 77 11 0 60 -4 110 -10z m-5253 -223 c-2 -40 -8 -53 -29 -69 -51 -38 -174 -169 -208 -222 -18 -30 -38 -56 -43 -59 -5 -4 -32 2 -59 13 -148 58 -391 74 -546 35 l-26 -6 15 47 c31 105 150 243 243 282 59 25 142 31 402 29 l254 -1 -3 -49z m6004 -107 c157 -34 299 -148 372 -300 23 -46 47 -108 53 -138 18 -75 6 -216 -25 -321 -92 -309 -141 -920 -116 -1466 20 -445 48 -643 130 -929 59 -203 172 -614 194 -705 183 -755 221 -1099 187 -1685 -35 -610 -258 -1100 -692 -1520 -305 -297 -638 -479 -1058 -579 -240 -58 -454 -68 -846 -41 -844 58 -1322 113 -1839 209 -569 106 -857 133 -1310 123 -438 -10 -829 -55 -1345 -153 -444 -84 -954 -123 -1241 -93 -448 45 -853 228 -1153 518 -257 249 -418 534 -486 859 -27 128 -36 355 -21 492 12 103 57 296 82 355 12 29 13 27 21 -50 22 -228 59 -372 134 -537 98 -214 184 -339 330 -484 125 -124 255 -206 409 -259 64 -22 243 -31 316 -16 30 6 128 47 219 92 132 63 183 83 250 95 151 27 271 3 460 -91 165 -82 231 -99 364 -92 119 6 173 20 286 77 236 118 433 336 580 643 68 141 89 203 126 365 24 109 26 128 21 282 -8 231 -42 370 -136 562 -121 244 -297 439 -545 604 -57 38 -90 66 -87 75 121 435 216 1048 267 1719 23 292 30 1075 13 1324 -8 111 -14 262 -13 336 1 127 3 140 33 222 77 205 226 347 439 415 98 32 253 36 352 10 119 -31 222 -90 308 -175 155 -154 198 -275 252 -717 55 -450 74 -859 67 -1445 -8 -652 -50 -1141 -134 -1565 -48 -244 -28 -425 68 -604 45 -84 189 -274 226 -298 38 -25 112 -28 153 -5 62 34 96 120 71 184 -5 13 -46 72 -90 132 -45 60 -90 125 -101 145 -27 53 -50 151 -50 211 0 69 20 188 34 199 29 24 391 137 661 206 721 185 1513 247 2185 169 74 -8 136 -17 138 -19 4 -3 10 -68 32 -305 5 -63 20 -172 31 -243 l22 -127 -33 -103 c-62 -198 -178 -388 -316 -517 -130 -122 -263 -196 -427 -237 -129 -32 -152 -44 -177 -93 -54 -105 12 -220 127 -220 88 0 239 45 368 109 203 102 371 246 502 434 34 48 63 84 66 80 2 -4 15 -59 27 -121 13 -61 31 -126 42 -142 57 -94 200 -93 258 2 25 41 25 81 0 199 -10 52 -40 193 -65 314 -135 645 -159 875 -158 1490 1 831 94 1560 265 2070 52 157 273 737 301 790 42 80 155 194 232 232 139 70 243 83 390 52z m-970 -203 c22 -7 39 -17 38 -22 -2 -5 -64 -171 -138 -369 -151 -400 -180 -487 -224 -661 -57 -226 -95 -436 -134 -739 l-22 -170 -400 -37 c-220 -20 -412 -37 -427 -37 -36 -1 -36 9 2 160 73 287 181 610 277 825 50 112 310 616 391 759 86 149 211 249 362 289 67 18 221 19 275 2z m-6044 -4007 c450 -90 817 -345 1001 -695 l37 -71 -107 1 c-121 1 -135 -3 -355 -96 -157 -66 -205 -96 -268 -166 -178 -198 -169 -492 21 -682 84 -84 307 -214 414 -241 25 -6 46 -15 46 -19 0 -17 -137 -133 -200 -170 -158 -93 -225 -93 -426 2 -169 81 -210 95 -337 115 -82 14 -119 15 -216 6 -141 -13 -217 -37 -407 -130 -136 -67 -140 -68 -219 -68 -91 0 -160 24 -255 88 -58 39 -187 154 -179 160 2 2 34 12 71 21 39 11 117 46 188 87 196 110 252 160 310 277 42 86 53 140 48 250 -3 86 -7 106 -39 172 -41 85 -116 173 -188 220 -76 48 -323 150 -409 167 -59 12 -93 14 -149 6 -40 -5 -73 -5 -73 -1 0 5 12 32 26 61 107 212 338 439 559 550 126 63 363 124 553 143 l72 7 0 -157 0 -156 -42 -21 c-113 -58 -205 -196 -215 -323 -22 -266 212 -483 473 -439 139 24 241 99 301 221 37 73 38 79 38 181 0 101 -2 110 -35 176 -39 79 -103 149 -170 186 l-45 24 -3 168 -2 167 39 0 c21 0 85 -9 142 -21z m-253 -634 c37 -40 41 -75 13 -121 -65 -107 -235 -25 -187 90 35 82 112 96 174 31z m-1354 -490 c-8 -67 5 -101 52 -138 49 -39 92 -45 148 -18 33 17 50 33 65 65 12 23 21 48 21 54 0 16 4 16 58 -12 102 -52 148 -140 124 -233 -18 -66 -63 -109 -195 -184 -106 -61 -115 -64 -177 -64 -56 0 -73 4 -108 27 -23 16 -49 40 -59 54 -18 28 -82 263 -83 304 0 69 42 143 105 181 49 31 56 26 49 -36z m2695 -44 c28 -50 27 -97 -4 -233 -37 -160 -67 -209 -147 -243 -78 -32 -126 -20 -288 75 -130 76 -160 115 -160 210 0 91 48 154 151 198 l45 20 17 -49 c30 -84 113 -127 187 -96 71 30 105 94 89 166 -4 19 -5 39 -3 43 9 14 90 -52 113 -91z">
            </path>
        </g>
    </g>
</svg>